<svg width="201" height="35" viewBox="0 0 201 35" fill="none" xmlns="http://www.w3.org/2000/svg">
<g clip-path="url(#clip0)">
<path fill-rule="evenodd" clip-rule="evenodd" d="M55.2188 13.6783C54.9063 13.2087 54.4375 12.8957 53.9688 12.7392C53.1875 12.4261 52.4063 12.2696 51.625 12.4261C51.3125 12.4261 51 12.5826 50.8438 12.7392C50.5313 12.8957 50.375 13.0522 50.2188 13.3653C50.0625 13.6783 50.0625 13.9913 50.0625 14.3044C50.0625 14.6174 50.0625 14.9305 50.2188 15.087C50.375 15.2435 50.5313 15.5566 50.8438 15.7131C51.1563 15.8696 51.3125 16.0261 51.7812 16.1826C52.0938 16.3392 52.5625 16.4957 52.875 16.4957C53.3438 16.6522 53.8125 16.8087 54.2812 16.9653C54.75 17.1218 55.2187 17.4348 55.6875 17.7479C56.1562 18.0609 56.4688 18.3739 56.7812 19C57.0938 19.4696 57.25 20.0957 57.25 20.7218C57.25 21.5044 57.0938 22.1305 56.7812 22.7566C56.4688 23.3826 56.1562 23.8522 55.6875 24.1653C55.2187 24.4783 54.5938 24.7913 53.9688 24.9479C53.3438 25.1044 52.5625 25.2609 51.9375 25.2609C51 25.2609 50.0625 25.1044 49.125 24.7913C48.3437 24.4783 47.5625 24.0087 46.9375 23.2261L48.8125 21.5044C49.125 21.9739 49.5938 22.4435 50.2188 22.6C50.8438 22.9131 51.3125 23.0696 51.9375 23.0696C52.25 23.0696 52.5625 23.0696 52.875 22.9131C53.1875 22.9131 53.5 22.7566 53.6563 22.6C53.9688 22.4435 54.125 22.1305 54.2812 21.9739C54.4375 21.6609 54.4375 21.3479 54.4375 21.0348C54.4375 20.7218 54.2812 20.4087 54.125 20.0957C53.9687 19.7826 53.6562 19.6261 53.3437 19.4696C53.0312 19.3131 52.7187 19.1566 52.25 19L51 18.5305C50.5312 18.3739 50.0625 18.2174 49.75 18.0609C49.2813 17.9044 48.9688 17.5913 48.6563 17.2783C48.3438 16.9653 48.0313 16.4957 47.875 16.1826C47.7188 15.7131 47.5625 15.2435 47.5625 14.4609C47.5625 13.6783 47.7188 13.0522 48.0313 12.5826C48.3438 12.1131 48.8125 11.6435 49.2812 11.3305C49.75 11.0174 50.375 10.7044 51 10.5479C51.625 10.3913 52.25 10.2348 52.875 10.2348C53.6563 10.2348 54.2812 10.3913 55.0625 10.5479C55.8437 10.8609 56.4688 11.1739 57.0938 11.6435L55.2188 13.6783ZM66.3125 10.5479H71C71.7812 10.5479 72.5625 10.5479 73.1875 10.7044C73.8125 10.8609 74.4375 11.0174 74.9062 11.487C75.375 11.8 75.6875 12.2696 76 12.7392C76.3125 13.2087 76.3125 13.8348 76.3125 14.6174C76.3125 15.4 76.1562 16.0261 75.8437 16.6522C75.5312 17.1218 75.2187 17.5913 74.5937 17.9044C74.125 18.2174 73.5 18.5305 72.875 18.687C72.25 19 71.4687 19 70.8437 19H68.8125V24.9479H66.3125V10.5479ZM70.5312 16.8087C71 16.8087 71.3125 16.8087 71.7812 16.6522C72.0937 16.6522 72.4062 16.4957 72.875 16.3392C73.1875 16.1826 73.3437 16.0261 73.6562 15.7131C73.8125 15.4 73.9687 15.087 73.9687 14.6174C73.9687 14.1479 73.8125 13.8348 73.6562 13.5218C73.5 13.2087 73.1875 13.0522 73.0312 12.8957C72.7187 12.7392 72.4062 12.5826 72.0937 12.5826C71.7812 12.5826 71.3125 12.5826 71 12.5826H69.125V16.6522H70.5312V16.8087ZM85.375 10.5479H87.875V22.6H93.9687V24.9479H85.375V10.5479ZM101.156 17.7479C101.156 16.6522 101.312 15.5566 101.781 14.6174C102.094 13.6783 102.719 12.8957 103.344 12.2696C103.969 11.6435 104.906 11.1739 105.844 10.7044C106.781 10.3913 107.875 10.2348 108.969 10.2348C110.062 10.2348 111.156 10.3913 112.094 10.7044C113.031 11.0174 113.812 11.487 114.594 12.2696C115.219 12.8957 115.844 13.6783 116.156 14.6174C116.469 15.5566 116.781 16.6522 116.781 17.7479C116.781 18.8435 116.625 19.7826 116.156 20.8783C115.375 22.7566 113.969 24.1652 112.094 24.7913C111.156 25.1044 110.062 25.4174 108.969 25.4174C107.875 25.4174 106.781 25.2609 105.844 24.7913C104.906 24.4783 104.125 23.8522 103.344 23.2261C102.719 22.6 102.094 21.6609 101.781 20.8783C101.469 19.7826 101.156 18.8435 101.156 17.7479ZM103.969 17.7479C103.969 18.5305 104.125 19.1566 104.281 19.9392C104.594 20.5653 104.906 21.1913 105.375 21.6609C105.844 22.1305 106.312 22.4435 106.937 22.7566C107.562 23.0696 108.187 23.2261 108.969 23.2261C109.75 23.2261 110.375 23.0696 111 22.7566C111.625 22.4435 112.094 22.1305 112.562 21.6609C113.031 21.1913 113.344 20.5653 113.656 19.9392C113.969 19.3131 113.969 18.5305 113.969 17.7479C113.969 16.9653 113.812 16.3392 113.656 15.7131C113.5 15.087 113.031 14.4609 112.719 13.9913C112.25 13.5218 111.781 13.2087 111.156 12.8957C110.531 12.5826 109.75 12.4261 109.125 12.4261C108.344 12.4261 107.719 12.5826 107.094 12.8957C106.469 13.2087 106 13.5218 105.531 13.9913C105.062 14.4609 104.75 15.087 104.594 15.7131C104.125 16.3392 103.969 17.1218 103.969 17.7479ZM128.187 12.8957H123.812V10.5479H135.219V12.7392H130.844V24.9479H128.344L128.187 12.8957ZM143.656 10.5479H153.187V12.7392H146.156V16.3392H152.719V18.5305H146.156V22.6H153.5V24.9479H143.656V10.5479ZM167.25 10.5479H169.437L175.687 24.9479H172.719L171.312 21.6609H165.062L163.812 24.9479H161L167.25 10.5479ZM170.531 19.4696L168.344 13.6783L166.156 19.4696H170.531ZM183.812 10.5479H187.875L191.625 20.7218L195.375 10.5479H199.437V24.9479H196.937V13.3653L192.562 24.9479H190.844L186.469 13.3653V24.9479H183.969L183.812 10.5479Z" fill="#FA4824"/>
<path d="M17.4062 33.8696C26.4672 33.8696 33.8125 26.5115 33.8125 17.4348C33.8125 8.3581 26.4672 1 17.4062 1C8.34533 1 1 8.3581 1 17.4348C1 26.5115 8.34533 33.8696 17.4062 33.8696Z" stroke="#FA4824"/>
<path d="M9.125 20.2521L4.4375 24.9478M6.15625 6.16518L28.8125 28.8608L6.15625 6.16518ZM14.5938 21.8174L17.25 24.4782L14.5938 21.8174ZM11.3125 24.9478L19.75 33.4L11.3125 24.9478ZM3.03125 10.3913L7.5625 14.9304L3.03125 10.3913ZM12.875 1.9391L23.1875 12.113L12.875 1.9391ZM10.8438 11.9565L1.625 21.0348L10.8438 11.9565ZM14.4375 14.7739L11.4687 17.7478L14.4375 14.7739ZM33.3438 15.5565L24.75 24.1652L33.3438 15.5565ZM23.6563 17.1217L20.8438 19.9391L23.6563 17.1217ZM31.4688 9.45214L28.5 12.4261L31.4688 9.45214ZM17.0938 18.3739L6.46875 29.0174L17.0938 18.3739ZM19.5938 27.1391L23.6563 31.2087L19.5938 27.1391Z" stroke="#FA4824" stroke-width="0.75" stroke-linecap="square"/>
<path d="M26 17.5913C27.6396 17.5913 28.9687 16.2599 28.9687 14.6174C28.9687 12.975 27.6396 11.6435 26 11.6435C24.3604 11.6435 23.0312 12.975 23.0312 14.6174C23.0312 16.2599 24.3604 17.5913 26 17.5913Z" stroke="#FA4824" stroke-width="0.75"/>
<path d="M10.375 20.2522C11.2379 20.2522 11.9375 19.5514 11.9375 18.687C11.9375 17.8225 11.2379 17.1218 10.375 17.1218C9.51206 17.1218 8.8125 17.8225 8.8125 18.687C8.8125 19.5514 9.51206 20.2522 10.375 20.2522Z" stroke="#FA4824" stroke-width="0.75"/>
<path d="M18.3437 27.1391C19.2067 27.1391 19.9062 26.4383 19.9062 25.5739C19.9062 24.7094 19.2067 24.0087 18.3437 24.0087C17.4808 24.0087 16.7812 24.7094 16.7812 25.5739C16.7812 26.4383 17.4808 27.1391 18.3437 27.1391Z" stroke="#FA4824" stroke-width="0.75"/>
</g>
<defs>
<clipPath id="clip0">
<rect width="200.438" height="34.8696" fill="white"/>
</clipPath>
</defs>
</svg>
